<?xml version="1.0" encoding="UTF-8" standalone="no"?>
<svg xmlns="http://www.w3.org/2000/svg" viewBox="0 0 120 120">
  <path fill="#006680" d="M61 0L36.96 24.04l-2.21-2.21 2.12-2.12c.78-.79-.16-3-2.12-4.95-1.96-1.96-4.17-2.9-4.95-2.12L11.4 31.02c-.78.79.17 3 2.13 4.95 1.95 1.96 4.16 2.9 4.95 2.12l2.12-2.12 2.2 2.21L10 51v63c0 3.32 2.97 6 6.67 6h86.66c3.7 0 6.67-2.68 6.67-6V6c0-3.32-2.97-6-6.67-6zm9 10h25c2.77 0 5 2.23 5 5v25c0 2.77-2.23 5-5 5L65 15c0-2.77 2.23-5 5-5z"/>
  <g style="line-height:1.25">
    <path fill="#ffffff" d="M15 100l5.19-.92.05-11.78 1.67-.29c2.13-.39 3.14-.6 4-.88a9.63 9.63 0 0 0 4.99-3.7 12.52 12.9 0 0 0 1.91-9.13c-.42-2.52-1.67-4.39-3.6-5.35-1.49-.78-3.48-.8-7.12-.16l-6.93 1.24zm5.26-18.19l.08-8.18 1.74-.31c1.85-.33 2.98-.4 3.67-.23 1.1.3 1.75 1.16 1.98 2.5a4.36 4.5 0 0 1-2.35 4.9c-.86.4-2.2.8-3.6 1.05zm36.35 1.67a14.7 14.7 0 0 0-.08-5.19c-.9-5.36-5.24-8.48-10.5-7.54-7.02 1.24-12.24 9-11 16.35.94 5.65 5.5 8.91 11.1 7.9a13.08 13.08 0 0 0 10.13-9.2l-5.49.98a6.65 6.86 0 0 1-4.74 3.14c-2.88.51-5.23-.95-5.68-3.55zm-16.37-2.04a7.1 7.31 0 0 1 5.81-5.6c3.22-.57 5.18.64 5.82 3.54zm20.5 10.43l5.04-.9.08-18.14 3.03-.54.06-5.07-3.03.53.02-7.75-5.04.9-.03 7.75-2.46.44-.05 5.07 2.47-.44zm10.64-1.9l5.04-.88.06-12.91c-.12-3.34 1.62-5.74 4.57-6.3l.04-5.37c-2.48.36-3.7 1.28-4.97 3.7v-2.27l-4.6.82zm22.56-27.75c-7.13 1.27-12.34 9.02-11.1 16.46a9.16 9.44 0 0 0 10.77 7.9c7.13-1.28 12.44-8.96 11.21-16.24-.94-5.66-5.5-9.07-10.88-8.12zm-.04 5.12c2.84-.5 5.32 1.48 5.85 4.65.7 4.2-2.16 8.76-5.95 9.44-2.88.51-5.4-1.43-5.92-4.6-.72-4.27 2.15-8.8 6.02-9.49z"/>
  </g>
</svg>
